<svg id="Layer_1" data-name="Layer 1" xmlns="http://www.w3.org/2000/svg" viewBox="0 0 800 305"><defs><style>.cls-1{fill:#01152b;}</style></defs><title>innovation</title><rect class="cls-1" x="270" y="276" width="5" height="29" rx="2.5" ry="2.5"/><rect class="cls-1" x="255" y="277" width="5" height="28" rx="2.5" ry="2.5"/><rect class="cls-1" x="240" y="278" width="5" height="27" rx="2.5" ry="2.5"/><rect class="cls-1" x="225" y="279" width="5" height="26" rx="2.5" ry="2.5"/><rect class="cls-1" x="210" y="280" width="5" height="25" rx="2.5" ry="2.5"/><rect class="cls-1" x="195" y="281" width="5" height="24" rx="2.5" ry="2.5"/><rect class="cls-1" x="180" y="282" width="5" height="23" rx="2.5" ry="2.5"/><rect class="cls-1" x="165" y="283" width="5" height="22" rx="2.5" ry="2.5"/><rect class="cls-1" x="150" y="284" width="5" height="21" rx="2.5" ry="2.5"/><rect class="cls-1" x="135" y="285" width="5" height="20" rx="2.5" ry="2.5"/><rect class="cls-1" x="120" y="286" width="5" height="19" rx="2.5" ry="2.5"/><rect class="cls-1" x="105" y="287" width="5" height="18" rx="2.5" ry="2.5"/><rect class="cls-1" x="90" y="289" width="5" height="16" rx="2.5" ry="2.5"/><rect class="cls-1" x="75" y="290" width="5" height="15" rx="2.5" ry="2.5"/><rect class="cls-1" x="60" y="291" width="5" height="14" rx="2.5" ry="2.5"/><rect class="cls-1" x="45" y="292" width="5" height="13" rx="2.5" ry="2.5"/><rect class="cls-1" x="30" y="293" width="5" height="12" rx="2.5" ry="2.5"/><rect class="cls-1" x="15" y="294" width="5" height="11" rx="2.5" ry="2.5"/><rect class="cls-1" y="295" width="5" height="10" rx="2.5" ry="2.5"/><rect class="cls-1" x="285" y="275" width="5" height="30" rx="2.5" ry="2.5"/><rect class="cls-1" x="300" y="274" width="5" height="31" rx="2.5" ry="2.5"/><rect class="cls-1" x="315" y="273" width="5" height="32" rx="2.5" ry="2.5"/><rect class="cls-1" x="330" y="272" width="5" height="33" rx="2.5" ry="2.5"/><rect class="cls-1" x="345" y="271" width="5" height="34" rx="2.5" ry="2.5"/><rect class="cls-1" x="360" y="270" width="5" height="35" rx="2.5" ry="2.5"/><rect class="cls-1" x="375" y="269" width="5" height="36" rx="2.5" ry="2.5"/><rect class="cls-1" x="390" y="268" width="5" height="37" rx="2.5" ry="2.5"/><rect class="cls-1" x="405" y="267" width="5" height="38" rx="2.5" ry="2.5"/><rect class="cls-1" x="420" y="266" width="5" height="39" rx="2.5" ry="2.5"/><rect class="cls-1" x="435" y="264" width="5" height="41" rx="2.5" ry="2.5"/><rect class="cls-1" x="450" y="262" width="5" height="43" rx="2.5" ry="2.5"/><rect class="cls-1" x="465" y="260" width="5" height="45" rx="2.5" ry="2.5"/><rect class="cls-1" x="480" y="258" width="5" height="47" rx="2.5" ry="2.5"/><rect class="cls-1" x="495" y="256" width="5" height="49" rx="2.5" ry="2.5"/><rect class="cls-1" x="510" y="254" width="5" height="51" rx="2.5" ry="2.5"/><rect class="cls-1" x="525" y="252" width="5" height="53" rx="2.5" ry="2.5"/><rect class="cls-1" x="540" y="248" width="5" height="57" rx="2.5" ry="2.5"/><rect class="cls-1" x="555" y="244" width="5" height="61" rx="2.5" ry="2.5"/><rect class="cls-1" x="570" y="240" width="5" height="65" rx="2.5" ry="2.5"/><rect class="cls-1" x="585" y="236" width="5" height="69" rx="2.5" ry="2.5"/><rect class="cls-1" x="600" y="232" width="5" height="73" rx="2.5" ry="2.5"/><rect class="cls-1" x="615" y="224" width="5" height="81" rx="2.5" ry="2.5"/><rect class="cls-1" x="630" y="216" width="5" height="89" rx="2.5" ry="2.5"/><rect class="cls-1" x="645" y="208" width="5" height="97" rx="2.5" ry="2.5"/><rect class="cls-1" x="660" y="200" width="5" height="105" rx="2.5" ry="2.5"/><rect class="cls-1" x="675" y="192" width="5" height="113" rx="2.5" ry="2.5"/><rect class="cls-1" x="690" y="176" width="5" height="129" rx="2.5" ry="2.5"/><rect class="cls-1" x="705" y="160" width="5" height="145" rx="2.5" ry="2.5"/><rect class="cls-1" x="720" y="144" width="5" height="161" rx="2.5" ry="2.5"/><rect class="cls-1" x="735" y="128" width="5" height="177" rx="2.5" ry="2.5"/><rect class="cls-1" x="750" y="96" width="5" height="209" rx="2.5" ry="2.5"/><rect class="cls-1" x="765" y="64" width="5" height="241" rx="2.5" ry="2.5"/><rect class="cls-1" x="780" y="32" width="5" height="273" rx="2.5" ry="2.5"/><rect class="cls-1" x="795" width="5" height="305" rx="2.5" ry="2.5"/><rect class="cls-1" x="925.5" y="43.97" width="5" height="29" rx="2.5" ry="2.5" transform="translate(1455.5 72.97) rotate(-180)"/><rect class="cls-1" x="940.5" y="43.97" width="5" height="28" rx="2.5" ry="2.5" transform="translate(1485.5 71.97) rotate(-180)"/><rect class="cls-1" x="955.5" y="43.97" width="5" height="27" rx="2.5" ry="2.5" transform="translate(1515.5 70.97) rotate(-180)"/><rect class="cls-1" x="970.5" y="43.97" width="5" height="26" rx="2.5" ry="2.5" transform="translate(1545.5 69.97) rotate(180)"/><rect class="cls-1" x="985.5" y="43.97" width="5" height="25" rx="2.5" ry="2.5" transform="translate(1575.5 68.97) rotate(180)"/><rect class="cls-1" x="1000.5" y="43.97" width="5" height="24" rx="2.5" ry="2.5" transform="translate(1605.5 67.97) rotate(-180)"/><rect class="cls-1" x="1015.5" y="43.97" width="5" height="23" rx="2.5" ry="2.5" transform="translate(1635.5 66.97) rotate(180)"/><rect class="cls-1" x="1030.5" y="43.97" width="5" height="22" rx="2.5" ry="2.5" transform="translate(1665.5 65.97) rotate(180)"/><rect class="cls-1" x="1045.5" y="43.97" width="5" height="21" rx="2.5" ry="2.5" transform="translate(1695.5 64.97) rotate(180)"/><rect class="cls-1" x="1060.5" y="43.97" width="5" height="20" rx="2.5" ry="2.5" transform="translate(1725.5 63.97) rotate(180)"/><rect class="cls-1" x="1075.5" y="43.97" width="5" height="19" rx="2.5" ry="2.5" transform="translate(1755.5 62.97) rotate(-180)"/><rect class="cls-1" x="1090.5" y="43.97" width="5" height="18" rx="2.5" ry="2.5" transform="translate(1785.5 61.97) rotate(-180)"/><rect class="cls-1" x="1105.5" y="43.97" width="5" height="16" rx="2.5" ry="2.5" transform="translate(1815.5 59.97) rotate(-180)"/><rect class="cls-1" x="1120.5" y="43.97" width="5" height="15" rx="2.5" ry="2.5" transform="translate(1845.5 58.97) rotate(180)"/><rect class="cls-1" x="1135.5" y="43.97" width="5" height="14" rx="2.5" ry="2.5" transform="translate(1875.5 57.97) rotate(-180)"/><rect class="cls-1" x="1150.5" y="43.97" width="5" height="13" rx="2.5" ry="2.5" transform="translate(1905.5 56.97) rotate(180)"/><rect class="cls-1" x="1165.5" y="43.97" width="5" height="12" rx="2.5" ry="2.5" transform="translate(1935.5 55.97) rotate(180)"/><rect class="cls-1" x="1180.5" y="43.97" width="5" height="11" rx="2.5" ry="2.5" transform="translate(1965.5 54.97) rotate(-180)"/><rect class="cls-1" x="1195.5" y="43.97" width="5" height="10" rx="2.5" ry="2.5" transform="translate(1995.5 53.97) rotate(-180)"/><rect class="cls-1" x="910.5" y="43.97" width="5" height="30" rx="2.5" ry="2.5" transform="translate(1425.5 73.97) rotate(180)"/><rect class="cls-1" x="895.5" y="43.97" width="5" height="31" rx="2.5" ry="2.5" transform="translate(1395.5 74.97) rotate(180)"/><rect class="cls-1" x="880.5" y="43.97" width="5" height="32" rx="2.5" ry="2.5" transform="translate(1365.5 75.97) rotate(-180)"/><rect class="cls-1" x="865.5" y="43.97" width="5" height="33" rx="2.5" ry="2.5" transform="translate(1335.5 76.97) rotate(-180)"/><rect class="cls-1" x="850.5" y="43.97" width="5" height="34" rx="2.5" ry="2.5" transform="translate(1305.5 77.97) rotate(180)"/><rect class="cls-1" x="835.5" y="43.97" width="5" height="35" rx="2.5" ry="2.5" transform="translate(1275.5 78.97) rotate(180)"/><rect class="cls-1" x="820.5" y="43.97" width="5" height="36" rx="2.5" ry="2.5" transform="translate(1245.5 79.97) rotate(180)"/><rect class="cls-1" x="805.5" y="43.97" width="5" height="37" rx="2.5" ry="2.5" transform="translate(1215.5 80.97) rotate(180)"/><rect class="cls-1" x="790.5" y="43.97" width="5" height="38" rx="2.5" ry="2.5" transform="translate(1185.5 81.97) rotate(-180)"/><rect class="cls-1" x="775.5" y="43.97" width="5" height="39" rx="2.5" ry="2.5" transform="translate(1155.5 82.97) rotate(-180)"/><rect class="cls-1" x="760.5" y="43.97" width="5" height="41" rx="2.5" ry="2.5" transform="translate(1125.5 84.97) rotate(-180)"/><rect class="cls-1" x="745.5" y="43.97" width="5" height="43" rx="2.5" ry="2.5" transform="translate(1095.5 86.97) rotate(-180)"/><rect class="cls-1" x="730.5" y="43.97" width="5" height="45" rx="2.5" ry="2.5" transform="translate(1065.5 88.97) rotate(-180)"/><rect class="cls-1" x="715.5" y="43.97" width="5" height="47" rx="2.5" ry="2.5" transform="translate(1035.5 90.97) rotate(-180)"/><rect class="cls-1" x="700.5" y="43.97" width="5" height="49" rx="2.5" ry="2.5" transform="translate(1005.5 92.97) rotate(-180)"/><rect class="cls-1" x="685.5" y="43.97" width="5" height="51" rx="2.5" ry="2.5" transform="translate(975.5 94.97) rotate(180)"/><rect class="cls-1" x="670.5" y="43.97" width="5" height="53" rx="2.5" ry="2.5" transform="translate(945.5 96.97) rotate(180)"/><rect class="cls-1" x="655.5" y="43.97" width="5" height="57" rx="2.5" ry="2.5" transform="translate(915.5 100.97) rotate(180)"/><rect class="cls-1" x="640.5" y="43.97" width="5" height="61" rx="2.5" ry="2.5" transform="translate(885.5 104.97) rotate(180)"/><rect class="cls-1" x="625.5" y="43.97" width="5" height="65" rx="2.5" ry="2.5" transform="translate(855.5 108.97) rotate(180)"/><rect class="cls-1" x="610.5" y="43.97" width="5" height="69" rx="2.5" ry="2.5" transform="translate(825.5 112.97) rotate(-180)"/><rect class="cls-1" x="595.5" y="43.97" width="5" height="73" rx="2.5" ry="2.5" transform="translate(795.5 116.97) rotate(180)"/><rect class="cls-1" x="580.5" y="43.97" width="5" height="81" rx="2.5" ry="2.5" transform="translate(765.5 124.97) rotate(180)"/><rect class="cls-1" x="565.5" y="43.97" width="5" height="89" rx="2.5" ry="2.5" transform="translate(735.5 132.97) rotate(180)"/><rect class="cls-1" x="550.5" y="43.97" width="5" height="97" rx="2.5" ry="2.5" transform="translate(705.5 140.97) rotate(-180)"/><rect class="cls-1" x="535.5" y="43.97" width="5" height="105" rx="2.5" ry="2.5" transform="translate(675.5 148.97) rotate(180)"/><rect class="cls-1" x="520.5" y="43.97" width="5" height="113" rx="2.5" ry="2.5" transform="translate(645.5 156.97) rotate(180)"/><rect class="cls-1" x="505.5" y="43.97" width="5" height="129" rx="2.5" ry="2.5" transform="translate(615.5 172.97) rotate(180)"/><rect class="cls-1" x="490.5" y="43.97" width="5" height="145" rx="2.5" ry="2.5" transform="translate(585.5 188.97) rotate(180)"/><rect class="cls-1" x="475.5" y="43.97" width="5" height="161" rx="2.5" ry="2.5" transform="translate(555.5 204.97) rotate(-180)"/><rect class="cls-1" x="460.5" y="43.97" width="5" height="177" rx="2.5" ry="2.5" transform="translate(525.5 220.97) rotate(180)"/><rect class="cls-1" x="445.5" y="43.97" width="5" height="209" rx="2.5" ry="2.5" transform="translate(495.5 252.97) rotate(-180)"/><rect class="cls-1" x="430.5" y="43.97" width="5" height="241" rx="2.5" ry="2.5" transform="translate(465.5 284.97) rotate(-180)"/><rect class="cls-1" x="415.5" y="43.97" width="5" height="273" rx="2.5" ry="2.5" transform="translate(435.5 316.97) rotate(-180)"/><rect class="cls-1" x="400.5" y="43.97" width="5" height="305" rx="2.5" ry="2.5" transform="translate(405.5 348.97) rotate(180)"/></svg>